<?xml version="1.0" encoding="utf-8"?><!-- Uploaded to: SVG Repo, www.svgrepo.com, Generator: SVG Repo Mixer Tools -->
<svg width="800px" height="800px" viewBox="0 -2 70 70" xmlns="http://www.w3.org/2000/svg"><title>Fashion</title><path d="M28,13.49a6.14,6.14,0,0,1,7.17-4.14A5.93,5.93,0,0,1,39.92,14a5.49,5.49,0,0,1-.76,3.86,5.81,5.81,0,0,1-1.78,1.73l-4,2.63a0.38,0.38,0,0,0-.17.31v5.68" fill="none" stroke="#752323" stroke-linecap="round" stroke-linejoin="round" stroke-width="2"/><path d="M64.75,45c4.29,2.29,2.06,7.23-3.26,7.23h-49C7.21,52.23,5,47.29,9.27,45L37,30.23ZM22,45.73H51.67L37,37.73Z" fill="#46bcb6"/><path d="M33,28.23L60.75,43c4.29,2.29,2.06,7.23-3.26,7.23h-49C3.21,50.23,1,45.29,5.27,43Z" fill="none" stroke="#752323" stroke-linejoin="round" stroke-width="2"/><polygon points="17.98 43.73 33.01 35.73 47.66 43.73 17.98 43.73" fill="none" stroke="#752323" stroke-linejoin="round" stroke-width="2"/></svg>